<svg xmlns="http://www.w3.org/2000/svg" xmlns:xlink="http://www.w3.org/1999/xlink" contentStyleType="text/css" data-diagram-type="SEQUENCE" height="648px" preserveAspectRatio="none" style="width:582px;height:648px;background:#FFFFFF;" version="1.1" viewBox="0 0 582 648" width="582px" zoomAndPan="magnify"><defs/><g><rect fill="none" height="263.4395" style="stroke:#000000;stroke-width:1.5;" width="534.6327" x="41.3652" y="287.3516"/><g><title>User</title><rect fill="#000000" fill-opacity="0.00000" height="486.3027" width="8" x="19.1826" y="81.4883"/><line style="stroke:#181818;stroke-width:0.5;stroke-dasharray:5,5;" x1="23" x2="23" y1="81.4883" y2="567.791"/></g><g><title>Order Service</title><rect fill="#000000" fill-opacity="0.00000" height="486.3027" width="8" x="99.7183" y="81.4883"/><line style="stroke:#181818;stroke-width:0.5;stroke-dasharray:5,5;" x1="103.3652" x2="103.3652" y1="81.4883" y2="567.791"/></g><g><title>Stock Service</title><rect fill="#000000" fill-opacity="0.00000" height="486.3027" width="8" x="224.819" y="81.4883"/><line style="stroke:#181818;stroke-width:0.5;stroke-dasharray:5,5;" x1="228.5734" x2="228.5734" y1="81.4883" y2="567.791"/></g><g><title>Delivery Service</title><rect fill="#000000" fill-opacity="0.00000" height="486.3027" width="8" x="346.1798" y="81.4883"/><line style="stroke:#181818;stroke-width:0.5;stroke-dasharray:5,5;" x1="350.0646" x2="350.0646" y1="81.4883" y2="567.791"/></g><g><title>Kafka</title><rect fill="#000000" fill-opacity="0.00000" height="486.3027" width="8" x="536.0317" y="81.4883"/><line style="stroke:#181818;stroke-width:0.5;stroke-dasharray:5,5;" x1="539.0653" x2="539.0653" y1="81.4883" y2="567.791"/></g><g class="participant participant-head" data-participant="User"><text fill="#000000" font-family="sans-serif" font-size="14" lengthAdjust="spacing" textLength="30.3652" x="5" y="78.5352">User</text><ellipse cx="23.1826" cy="13.5" fill="#E2E2F0" rx="8" ry="8" style="stroke:#181818;stroke-width:0.5;"/><path d="M23.1826,21.5 L23.1826,48.5 M10.1826,29.5 L36.1826,29.5 M23.1826,48.5 L10.1826,63.5 M23.1826,48.5 L36.1826,63.5" fill="none" style="stroke:#181818;stroke-width:0.5;"/></g><g class="participant participant-tail" data-participant="User"><text fill="#000000" font-family="sans-serif" font-size="14" lengthAdjust="spacing" textLength="30.3652" x="5" y="580.3262">User</text><ellipse cx="23.1826" cy="591.7793" fill="#E2E2F0" rx="8" ry="8" style="stroke:#181818;stroke-width:0.5;"/><path d="M23.1826,599.7793 L23.1826,626.7793 M10.1826,607.7793 L36.1826,607.7793 M23.1826,626.7793 L10.1826,641.7793 M23.1826,626.7793 L36.1826,641.7793" fill="none" style="stroke:#181818;stroke-width:0.5;"/></g><g class="participant participant-head" data-participant="Order"><rect fill="#E2E2F0" height="30.4883" rx="2.5" ry="2.5" style="stroke:#181818;stroke-width:0.5;" width="104.7061" x="51.3652" y="50"/><text fill="#000000" font-family="sans-serif" font-size="14" lengthAdjust="spacing" textLength="90.7061" x="58.3652" y="70.5352">Order Service</text></g><g class="participant participant-tail" data-participant="Order"><rect fill="#E2E2F0" height="30.4883" rx="2.5" ry="2.5" style="stroke:#181818;stroke-width:0.5;" width="104.7061" x="51.3652" y="566.791"/><text fill="#000000" font-family="sans-serif" font-size="14" lengthAdjust="spacing" textLength="90.7061" x="58.3652" y="587.3262">Order Service</text></g><g class="participant participant-head" data-participant="Stock"><rect fill="#E2E2F0" height="30.4883" rx="2.5" ry="2.5" style="stroke:#181818;stroke-width:0.5;" width="102.4912" x="177.5734" y="50"/><text fill="#000000" font-family="sans-serif" font-size="14" lengthAdjust="spacing" textLength="88.4912" x="184.5734" y="70.5352">Stock Service</text></g><g class="participant participant-tail" data-participant="Stock"><rect fill="#E2E2F0" height="30.4883" rx="2.5" ry="2.5" style="stroke:#181818;stroke-width:0.5;" width="102.4912" x="177.5734" y="566.791"/><text fill="#000000" font-family="sans-serif" font-size="14" lengthAdjust="spacing" textLength="88.4912" x="184.5734" y="587.3262">Stock Service</text></g><g class="participant participant-head" data-participant="Delivery"><rect fill="#E2E2F0" height="30.4883" rx="2.5" ry="2.5" style="stroke:#181818;stroke-width:0.5;" width="120.2305" x="290.0646" y="50"/><text fill="#000000" font-family="sans-serif" font-size="14" lengthAdjust="spacing" textLength="106.2305" x="297.0646" y="70.5352">Delivery Service</text></g><g class="participant participant-tail" data-participant="Delivery"><rect fill="#E2E2F0" height="30.4883" rx="2.5" ry="2.5" style="stroke:#181818;stroke-width:0.5;" width="120.2305" x="290.0646" y="566.791"/><text fill="#000000" font-family="sans-serif" font-size="14" lengthAdjust="spacing" textLength="106.2305" x="297.0646" y="587.3262">Delivery Service</text></g><g class="participant participant-head" data-participant="Kafka"><rect fill="#E2E2F0" height="30.4883" rx="2.5" ry="2.5" style="stroke:#181818;stroke-width:0.5;" width="51.9326" x="514.0653" y="50"/><text fill="#000000" font-family="sans-serif" font-size="14" lengthAdjust="spacing" textLength="37.9326" x="521.0653" y="70.5352">Kafka</text></g><g class="participant participant-tail" data-participant="Kafka"><rect fill="#E2E2F0" height="30.4883" rx="2.5" ry="2.5" style="stroke:#181818;stroke-width:0.5;" width="51.9326" x="514.0653" y="566.791"/><text fill="#000000" font-family="sans-serif" font-size="14" lengthAdjust="spacing" textLength="37.9326" x="521.0653" y="587.3262">Kafka</text></g><g class="message" data-participant-1="User" data-participant-2="Order"><polygon fill="#181818" points="91.7183,108.7988,101.7183,112.7988,91.7183,116.7988,95.7183,112.7988" style="stroke:#181818;stroke-width:1;"/><line style="stroke:#181818;stroke-width:1;" x1="23.1826" x2="97.7183" y1="112.7988" y2="112.7988"/><text fill="#000000" font-family="sans-serif" font-size="13" lengthAdjust="spacing" textLength="49.0933" x="30.1826" y="108.0566">&#51452;&#47928; &#50836;&#52397;</text></g><g class="message" data-participant-1="Order" data-participant-2="Kafka"><polygon fill="#181818" points="528.0317,138.1094,538.0317,142.1094,528.0317,146.1094,532.0317,142.1094" style="stroke:#181818;stroke-width:1;"/><line style="stroke:#181818;stroke-width:1;" x1="103.7183" x2="534.0317" y1="142.1094" y2="142.1094"/><text fill="#000000" font-family="sans-serif" font-size="13" lengthAdjust="spacing" textLength="172.5077" x="110.7183" y="137.3672">ORDER_CREATED &#51060;&#48292;&#53944; &#48156;&#54665;</text></g><g class="message" data-participant-1="Kafka" data-participant-2="Stock"><polygon fill="#181818" points="239.819,167.4199,229.819,171.4199,239.819,175.4199,235.819,171.4199" style="stroke:#181818;stroke-width:1;"/><line style="stroke:#181818;stroke-width:1;" x1="233.819" x2="539.0317" y1="171.4199" y2="171.4199"/><text fill="#000000" font-family="sans-serif" font-size="13" lengthAdjust="spacing" textLength="113.5449" x="245.819" y="166.6777">&#51452;&#47928; &#49373;&#49457; &#51060;&#48292;&#53944; &#49688;&#49888;</text></g><g class="message" data-participant-1="Stock" data-participant-2="Stock"><line style="stroke:#181818;stroke-width:1;" x1="228.819" x2="270.819" y1="200.7305" y2="200.7305"/><line style="stroke:#181818;stroke-width:1;" x1="270.819" x2="270.819" y1="200.7305" y2="213.7305"/><line style="stroke:#181818;stroke-width:1;" x1="229.819" x2="270.819" y1="213.7305" y2="213.7305"/><polygon fill="#181818" points="239.819,209.7305,229.819,213.7305,239.819,217.7305,235.819,213.7305" style="stroke:#181818;stroke-width:1;"/><text fill="#000000" font-family="sans-serif" font-size="13" lengthAdjust="spacing" textLength="49.0933" x="235.819" y="195.9883">&#51116;&#44256; &#54869;&#51064;</text></g><g class="message" data-participant-1="Stock" data-participant-2="Kafka"><polygon fill="#181818" points="528.0317,239.041,538.0317,243.041,528.0317,247.041,532.0317,243.041" style="stroke:#181818;stroke-width:1;"/><line style="stroke:#181818;stroke-width:1;" x1="228.819" x2="534.0317" y1="243.041" y2="243.041"/><text fill="#000000" font-family="sans-serif" font-size="13" lengthAdjust="spacing" textLength="246.467" x="235.819" y="238.2988">STOCK_RESERVED / STOCK_FAILED &#48156;&#54665;</text></g><g class="message" data-participant-1="Kafka" data-participant-2="Order"><polygon fill="#181818" points="114.7183,268.3516,104.7183,272.3516,114.7183,276.3516,110.7183,272.3516" style="stroke:#181818;stroke-width:1;"/><line style="stroke:#181818;stroke-width:1;" x1="108.7183" x2="539.0317" y1="272.3516" y2="272.3516"/><text fill="#000000" font-family="sans-serif" font-size="13" lengthAdjust="spacing" textLength="102.2999" x="120.7183" y="267.6094">&#51116;&#44256; &#52376;&#47532; &#44208;&#44284; &#49688;&#49888;</text></g><path d="M41.3652,287.3516 L103.5039,287.3516 L103.5039,294.6621 L93.5039,304.6621 L41.3652,304.6621 L41.3652,287.3516" fill="#EEEEEE" style="stroke:#000000;stroke-width:1.5;"/><rect fill="none" height="263.4395" style="stroke:#000000;stroke-width:1.5;" width="534.6327" x="41.3652" y="287.3516"/><text fill="#000000" font-family="sans-serif" font-size="13" font-weight="bold" lengthAdjust="spacing" textLength="17.1387" x="56.3652" y="300.9199">alt</text><text fill="#000000" font-family="sans-serif" font-size="11" font-weight="bold" lengthAdjust="spacing" textLength="49.8388" x="118.5039" y="299.9863">[&#51116;&#44256; &#49457;&#44277;]</text><g class="message" data-participant-1="Order" data-participant-2="Kafka"><polygon fill="#181818" points="528.0317,321.9727,538.0317,325.9727,528.0317,329.9727,532.0317,325.9727" style="stroke:#181818;stroke-width:1;"/><line style="stroke:#181818;stroke-width:1;" x1="103.7183" x2="534.0317" y1="325.9727" y2="325.9727"/><text fill="#000000" font-family="sans-serif" font-size="13" lengthAdjust="spacing" textLength="152.0393" x="110.7183" y="321.2305">ORDER_CONFIRMED &#48156;&#54665;</text></g><g class="message" data-participant-1="Kafka" data-participant-2="Delivery"><polygon fill="#181818" points="361.1798,351.2832,351.1798,355.2832,361.1798,359.2832,357.1798,355.2832" style="stroke:#181818;stroke-width:1;"/><line style="stroke:#181818;stroke-width:1;" x1="355.1798" x2="539.0317" y1="355.2832" y2="355.2832"/><text fill="#000000" font-family="sans-serif" font-size="13" lengthAdjust="spacing" textLength="109.4316" x="367.1798" y="350.541">&#51452;&#47928;&#54869;&#51221; &#51060;&#48292;&#53944; &#49688;&#49888;</text></g><g class="message" data-participant-1="Delivery" data-participant-2="Kafka"><polygon fill="#181818" points="528.0317,380.5938,538.0317,384.5938,528.0317,388.5938,532.0317,384.5938" style="stroke:#181818;stroke-width:1;"/><line style="stroke:#181818;stroke-width:1;" x1="350.1798" x2="534.0317" y1="384.5938" y2="384.5938"/><text fill="#000000" font-family="sans-serif" font-size="13" lengthAdjust="spacing" textLength="165.8518" x="357.1798" y="379.8516">DELIVERY_REQUESTED &#48156;&#54665;</text></g><g class="message" data-participant-1="Kafka" data-participant-2="Order"><polygon fill="#181818" points="114.7183,409.9043,104.7183,413.9043,114.7183,417.9043,110.7183,413.9043" style="stroke:#181818;stroke-width:1;"/><line style="stroke:#181818;stroke-width:1;" x1="108.7183" x2="539.0317" y1="413.9043" y2="413.9043"/><text fill="#000000" font-family="sans-serif" font-size="13" lengthAdjust="spacing" textLength="113.5449" x="120.7183" y="409.1621">&#48176;&#49569; &#50836;&#52397; &#51060;&#48292;&#53944; &#49688;&#49888;</text></g><g class="message" data-participant-1="Order" data-participant-2="Order"><line style="stroke:#181818;stroke-width:1;" x1="103.7183" x2="145.7183" y1="443.2148" y2="443.2148"/><line style="stroke:#181818;stroke-width:1;" x1="145.7183" x2="145.7183" y1="443.2148" y2="456.2148"/><line style="stroke:#181818;stroke-width:1;" x1="104.7183" x2="145.7183" y1="456.2148" y2="456.2148"/><polygon fill="#181818" points="114.7183,452.2148,104.7183,456.2148,114.7183,460.2148,110.7183,456.2148" style="stroke:#181818;stroke-width:1;"/><text fill="#000000" font-family="sans-serif" font-size="13" lengthAdjust="spacing" textLength="111.1007" x="110.7183" y="438.4727">&#51452;&#47928; &#49345;&#53468; = "&#48176;&#49569;&#51473;"</text></g><line style="stroke:#000000;stroke-width:1;stroke-dasharray:2,2;" x1="41.3652" x2="575.998" y1="465.2148" y2="465.2148"/><text fill="#000000" font-family="sans-serif" font-size="11" font-weight="bold" lengthAdjust="spacing" textLength="49.8388" x="46.3652" y="475.8496">[&#51116;&#44256; &#49892;&#54056;]</text><g class="message" data-participant-1="Order" data-participant-2="Kafka"><polygon fill="#181818" points="528.0317,496.4805,538.0317,500.4805,528.0317,504.4805,532.0317,500.4805" style="stroke:#181818;stroke-width:1;"/><line style="stroke:#181818;stroke-width:1;" x1="103.7183" x2="534.0317" y1="500.4805" y2="500.4805"/><text fill="#000000" font-family="sans-serif" font-size="13" lengthAdjust="spacing" textLength="136.7796" x="110.7183" y="495.7383">ORDER_REJECTED &#48156;&#54665;</text></g><g class="message" data-participant-1="Order" data-participant-2="Order"><line style="stroke:#181818;stroke-width:1;" x1="103.7183" x2="145.7183" y1="529.791" y2="529.791"/><line style="stroke:#181818;stroke-width:1;" x1="145.7183" x2="145.7183" y1="529.791" y2="542.791"/><line style="stroke:#181818;stroke-width:1;" x1="104.7183" x2="145.7183" y1="542.791" y2="542.791"/><polygon fill="#181818" points="114.7183,538.791,104.7183,542.791,114.7183,546.791,110.7183,542.791" style="stroke:#181818;stroke-width:1;"/><text fill="#000000" font-family="sans-serif" font-size="13" lengthAdjust="spacing" textLength="99.8557" x="110.7183" y="525.0488">&#51452;&#47928; &#49345;&#53468; = "&#52712;&#49548;"</text></g><!--SRC=[XP7DQi9G48Ntzoa6zwLxeGKnLx3QXjweq9M4U0j1KOb1wB8eqbOtXLfiqMAf51SMOcof2vyekNc7vZ_6_cLtPqxcEsT6bDI60iKMLL1JL5HPafjYNOK4hrIe0W9Lsh944o2smAt4HOBQaAenaLk9YpXQazjKkOZfWY923Xhs3htnIM0l6tEn1lPun_GtvBcmkpdnl2ecWISS9kKqmQa2ve1DtarzPjsimTJ6rlqrSbMEtBKH3UjCM7Uv9MTN8zQV8kJvtz8_BOpL5Ao78PkiewuF5mfyEbScMC2aPDFt_K8cbStRJzz2v248vCra-iXyNO2XQyPg4nWGQshOxowDrGS2-_ibD7-IoPBZYEH8GrYmpo2p4s4w_1xP-IayI8JWS3vRmkJCJdTQn4BX5ueVoTGqrdlsR_Gp8yomSzREfTKPmm4al1biTfj0jDQYuHhwCsim_sCD11_Xz8w_Vs7iSyvw0vjKhtm1]--></g></svg>
