<svg xmlns="http://www.w3.org/2000/svg" xmlns:xlink="http://www.w3.org/1999/xlink" contentStyleType="text/css" data-diagram-type="SEQUENCE" height="543px" preserveAspectRatio="none" style="width:636px;height:543px;background:#FFFFFF;" version="1.1" viewBox="0 0 636 543" width="636px" zoomAndPan="magnify"><defs/><g><g><title>User</title><rect fill="#000000" fill-opacity="0.00000" height="381.416" width="8" x="19.1826" y="81.4883"/><line style="stroke:#181818;stroke-width:0.5;stroke-dasharray:5,5;" x1="23" x2="23" y1="81.4883" y2="462.9043"/></g><g><title>Return Service</title><rect fill="#000000" fill-opacity="0.00000" height="381.416" width="8" x="102.7432" y="81.4883"/><line style="stroke:#181818;stroke-width:0.5;stroke-dasharray:5,5;" x1="106.3652" x2="106.3652" y1="81.4883" y2="462.9043"/></g><g><title>Delivery Service</title><rect fill="#000000" fill-opacity="0.00000" height="381.416" width="8" x="228.2363" y="81.4883"/><line style="stroke:#181818;stroke-width:0.5;stroke-dasharray:5,5;" x1="232.1211" x2="232.1211" y1="81.4883" y2="462.9043"/></g><g><title>Stock Service</title><rect fill="#000000" fill-opacity="0.00000" height="381.416" width="8" x="349.5972" y="81.4883"/><line style="stroke:#181818;stroke-width:0.5;stroke-dasharray:5,5;" x1="353.3516" x2="353.3516" y1="81.4883" y2="462.9043"/></g><g><title>Order Service</title><rect fill="#000000" fill-opacity="0.00000" height="381.416" width="8" x="463.1958" y="81.4883"/><line style="stroke:#181818;stroke-width:0.5;stroke-dasharray:5,5;" x1="466.8428" x2="466.8428" y1="81.4883" y2="462.9043"/></g><g><title>Kafka</title><rect fill="#000000" fill-opacity="0.00000" height="381.416" width="8" x="600.7407" y="81.4883"/><line style="stroke:#181818;stroke-width:0.5;stroke-dasharray:5,5;" x1="603.7743" x2="603.7743" y1="81.4883" y2="462.9043"/></g><g class="participant participant-head" data-participant="User"><text fill="#000000" font-family="sans-serif" font-size="14" lengthAdjust="spacing" textLength="30.3652" x="5" y="78.5352">User</text><ellipse cx="23.1826" cy="13.5" fill="#E2E2F0" rx="8" ry="8" style="stroke:#181818;stroke-width:0.5;"/><path d="M23.1826,21.5 L23.1826,48.5 M10.1826,29.5 L36.1826,29.5 M23.1826,48.5 L10.1826,63.5 M23.1826,48.5 L36.1826,63.5" fill="none" style="stroke:#181818;stroke-width:0.5;"/></g><g class="participant participant-tail" data-participant="User"><text fill="#000000" font-family="sans-serif" font-size="14" lengthAdjust="spacing" textLength="30.3652" x="5" y="475.4395">User</text><ellipse cx="23.1826" cy="486.8926" fill="#E2E2F0" rx="8" ry="8" style="stroke:#181818;stroke-width:0.5;"/><path d="M23.1826,494.8926 L23.1826,521.8926 M10.1826,502.8926 L36.1826,502.8926 M23.1826,521.8926 L10.1826,536.8926 M23.1826,521.8926 L36.1826,536.8926" fill="none" style="stroke:#181818;stroke-width:0.5;"/></g><g class="participant participant-head" data-participant="Return"><rect fill="#E2E2F0" height="30.4883" rx="2.5" ry="2.5" style="stroke:#181818;stroke-width:0.5;" width="110.7559" x="51.3652" y="50"/><text fill="#000000" font-family="sans-serif" font-size="14" lengthAdjust="spacing" textLength="96.7559" x="58.3652" y="70.5352">Return Service</text></g><g class="participant participant-tail" data-participant="Return"><rect fill="#E2E2F0" height="30.4883" rx="2.5" ry="2.5" style="stroke:#181818;stroke-width:0.5;" width="110.7559" x="51.3652" y="461.9043"/><text fill="#000000" font-family="sans-serif" font-size="14" lengthAdjust="spacing" textLength="96.7559" x="58.3652" y="482.4395">Return Service</text></g><g class="participant participant-head" data-participant="Delivery"><rect fill="#E2E2F0" height="30.4883" rx="2.5" ry="2.5" style="stroke:#181818;stroke-width:0.5;" width="120.2305" x="172.1211" y="50"/><text fill="#000000" font-family="sans-serif" font-size="14" lengthAdjust="spacing" textLength="106.2305" x="179.1211" y="70.5352">Delivery Service</text></g><g class="participant participant-tail" data-participant="Delivery"><rect fill="#E2E2F0" height="30.4883" rx="2.5" ry="2.5" style="stroke:#181818;stroke-width:0.5;" width="120.2305" x="172.1211" y="461.9043"/><text fill="#000000" font-family="sans-serif" font-size="14" lengthAdjust="spacing" textLength="106.2305" x="179.1211" y="482.4395">Delivery Service</text></g><g class="participant participant-head" data-participant="Stock"><rect fill="#E2E2F0" height="30.4883" rx="2.5" ry="2.5" style="stroke:#181818;stroke-width:0.5;" width="102.4912" x="302.3516" y="50"/><text fill="#000000" font-family="sans-serif" font-size="14" lengthAdjust="spacing" textLength="88.4912" x="309.3516" y="70.5352">Stock Service</text></g><g class="participant participant-tail" data-participant="Stock"><rect fill="#E2E2F0" height="30.4883" rx="2.5" ry="2.5" style="stroke:#181818;stroke-width:0.5;" width="102.4912" x="302.3516" y="461.9043"/><text fill="#000000" font-family="sans-serif" font-size="14" lengthAdjust="spacing" textLength="88.4912" x="309.3516" y="482.4395">Stock Service</text></g><g class="participant participant-head" data-participant="Order"><rect fill="#E2E2F0" height="30.4883" rx="2.5" ry="2.5" style="stroke:#181818;stroke-width:0.5;" width="104.7061" x="414.8428" y="50"/><text fill="#000000" font-family="sans-serif" font-size="14" lengthAdjust="spacing" textLength="90.7061" x="421.8428" y="70.5352">Order Service</text></g><g class="participant participant-tail" data-participant="Order"><rect fill="#E2E2F0" height="30.4883" rx="2.5" ry="2.5" style="stroke:#181818;stroke-width:0.5;" width="104.7061" x="414.8428" y="461.9043"/><text fill="#000000" font-family="sans-serif" font-size="14" lengthAdjust="spacing" textLength="90.7061" x="421.8428" y="482.4395">Order Service</text></g><g class="participant participant-head" data-participant="Kafka"><rect fill="#E2E2F0" height="30.4883" rx="2.5" ry="2.5" style="stroke:#181818;stroke-width:0.5;" width="51.9326" x="578.7743" y="50"/><text fill="#000000" font-family="sans-serif" font-size="14" lengthAdjust="spacing" textLength="37.9326" x="585.7743" y="70.5352">Kafka</text></g><g class="participant participant-tail" data-participant="Kafka"><rect fill="#E2E2F0" height="30.4883" rx="2.5" ry="2.5" style="stroke:#181818;stroke-width:0.5;" width="51.9326" x="578.7743" y="461.9043"/><text fill="#000000" font-family="sans-serif" font-size="14" lengthAdjust="spacing" textLength="37.9326" x="585.7743" y="482.4395">Kafka</text></g><g class="message" data-participant-1="User" data-participant-2="Return"><polygon fill="#181818" points="94.7432,108.7988,104.7432,112.7988,94.7432,116.7988,98.7432,112.7988" style="stroke:#181818;stroke-width:1;"/><line style="stroke:#181818;stroke-width:1;" x1="23.1826" x2="100.7432" y1="112.7988" y2="112.7988"/><text fill="#000000" font-family="sans-serif" font-size="13" lengthAdjust="spacing" textLength="49.0933" x="30.1826" y="108.0566">&#48152;&#54408; &#50836;&#52397;</text></g><g class="message" data-participant-1="Return" data-participant-2="Kafka"><polygon fill="#181818" points="592.7407,138.1094,602.7407,142.1094,592.7407,146.1094,596.7407,142.1094" style="stroke:#181818;stroke-width:1;"/><line style="stroke:#181818;stroke-width:1;" x1="106.7432" x2="598.7407" y1="142.1094" y2="142.1094"/><text fill="#000000" font-family="sans-serif" font-size="13" lengthAdjust="spacing" textLength="194.6927" x="113.7432" y="137.3672">RETURN_REQUESTED &#51060;&#48292;&#53944; &#48156;&#54665;</text></g><g class="message" data-participant-1="Kafka" data-participant-2="Order"><polygon fill="#181818" points="478.1958,167.4199,468.1958,171.4199,478.1958,175.4199,474.1958,171.4199" style="stroke:#181818;stroke-width:1;"/><line style="stroke:#181818;stroke-width:1;" x1="472.1958" x2="603.7407" y1="171.4199" y2="171.4199"/><text fill="#000000" font-family="sans-serif" font-size="13" lengthAdjust="spacing" textLength="113.5449" x="484.1958" y="166.6777">&#48152;&#54408; &#50836;&#52397; &#51060;&#48292;&#53944; &#49688;&#49888;</text></g><g class="message" data-participant-1="Order" data-participant-2="Order"><line style="stroke:#181818;stroke-width:1;" x1="467.1958" x2="509.1958" y1="200.7305" y2="200.7305"/><line style="stroke:#181818;stroke-width:1;" x1="509.1958" x2="509.1958" y1="200.7305" y2="213.7305"/><line style="stroke:#181818;stroke-width:1;" x1="468.1958" x2="509.1958" y1="213.7305" y2="213.7305"/><polygon fill="#181818" points="478.1958,209.7305,468.1958,213.7305,478.1958,217.7305,474.1958,213.7305" style="stroke:#181818;stroke-width:1;"/><text fill="#000000" font-family="sans-serif" font-size="13" lengthAdjust="spacing" textLength="122.3457" x="474.1958" y="195.9883">&#51452;&#47928; &#49345;&#53468; = "&#48152;&#54408;&#49888;&#52397;"</text></g><g class="message" data-participant-1="Kafka" data-participant-2="Delivery"><polygon fill="#181818" points="243.2363,239.041,233.2363,243.041,243.2363,247.041,239.2363,243.041" style="stroke:#181818;stroke-width:1;"/><line style="stroke:#181818;stroke-width:1;" x1="237.2363" x2="603.7407" y1="243.041" y2="243.041"/><text fill="#000000" font-family="sans-serif" font-size="13" lengthAdjust="spacing" textLength="113.5449" x="249.2363" y="238.2988">&#48152;&#54408; &#50836;&#52397; &#51060;&#48292;&#53944; &#49688;&#49888;</text></g><g class="message" data-participant-1="Delivery" data-participant-2="Kafka"><polygon fill="#181818" points="592.7407,268.3516,602.7407,272.3516,592.7407,276.3516,596.7407,272.3516" style="stroke:#181818;stroke-width:1;"/><line style="stroke:#181818;stroke-width:1;" x1="232.2363" x2="598.7407" y1="272.3516" y2="272.3516"/><text fill="#000000" font-family="sans-serif" font-size="13" lengthAdjust="spacing" textLength="210.1394" x="239.2363" y="267.6094">RETURN_PICKUP_CONFIRMED &#48156;&#54665;</text></g><g class="message" data-participant-1="Kafka" data-participant-2="Stock"><polygon fill="#181818" points="364.5972,297.6621,354.5972,301.6621,364.5972,305.6621,360.5972,301.6621" style="stroke:#181818;stroke-width:1;"/><line style="stroke:#181818;stroke-width:1;" x1="358.5972" x2="603.7407" y1="301.6621" y2="301.6621"/><text fill="#000000" font-family="sans-serif" font-size="13" lengthAdjust="spacing" textLength="140.1481" x="370.5972" y="296.9199">&#48152;&#54408; &#48176;&#49569; &#50756;&#47308; &#51060;&#48292;&#53944; &#49688;&#49888;</text></g><g class="message" data-participant-1="Stock" data-participant-2="Stock"><line style="stroke:#181818;stroke-width:1;" x1="353.5972" x2="395.5972" y1="330.9727" y2="330.9727"/><line style="stroke:#181818;stroke-width:1;" x1="395.5972" x2="395.5972" y1="330.9727" y2="343.9727"/><line style="stroke:#181818;stroke-width:1;" x1="354.5972" x2="395.5972" y1="343.9727" y2="343.9727"/><polygon fill="#181818" points="364.5972,339.9727,354.5972,343.9727,364.5972,347.9727,360.5972,343.9727" style="stroke:#181818;stroke-width:1;"/><text fill="#000000" font-family="sans-serif" font-size="13" lengthAdjust="spacing" textLength="75.6966" x="360.5972" y="326.2305">&#51116;&#44256; &#48373;&#44396; &#52376;&#47532;</text></g><g class="message" data-participant-1="Stock" data-participant-2="Kafka"><polygon fill="#181818" points="592.7407,369.2832,602.7407,373.2832,592.7407,377.2832,596.7407,373.2832" style="stroke:#181818;stroke-width:1;"/><line style="stroke:#181818;stroke-width:1;" x1="353.5972" x2="598.7407" y1="373.2832" y2="373.2832"/><text fill="#000000" font-family="sans-serif" font-size="13" lengthAdjust="spacing" textLength="181.0925" x="360.5972" y="368.541">INVENTORY_RESTOCKED &#48156;&#54665;</text></g><g class="message" data-participant-1="Kafka" data-participant-2="Order"><polygon fill="#181818" points="478.1958,398.5938,468.1958,402.5938,478.1958,406.5938,474.1958,402.5938" style="stroke:#181818;stroke-width:1;"/><line style="stroke:#181818;stroke-width:1;" x1="472.1958" x2="603.7407" y1="402.5938" y2="402.5938"/><text fill="#000000" font-family="sans-serif" font-size="13" lengthAdjust="spacing" textLength="102.2999" x="484.1958" y="397.8516">&#51116;&#44256; &#48373;&#44396; &#44208;&#44284; &#49688;&#49888;</text></g><g class="message" data-participant-1="Order" data-participant-2="Order"><line style="stroke:#181818;stroke-width:1;" x1="467.1958" x2="509.1958" y1="431.9043" y2="431.9043"/><line style="stroke:#181818;stroke-width:1;" x1="509.1958" x2="509.1958" y1="431.9043" y2="444.9043"/><line style="stroke:#181818;stroke-width:1;" x1="468.1958" x2="509.1958" y1="444.9043" y2="444.9043"/><polygon fill="#181818" points="478.1958,440.9043,468.1958,444.9043,478.1958,448.9043,474.1958,444.9043" style="stroke:#181818;stroke-width:1;"/><text fill="#000000" font-family="sans-serif" font-size="13" lengthAdjust="spacing" textLength="122.3457" x="474.1958" y="427.1621">&#51452;&#47928; &#49345;&#53468; = "&#48152;&#54408;&#50756;&#47308;"</text></g><!--SRC=[bP7DIiD058NtynINx7s1WcxI22MOrFm8hag88uHAMwQnu58gKdzM8bAbIgN5LOIGMd3H9yfCti7ff6sSPY5kptpdtdFFU7xO9k1sCK4TZuI17tIyLWYAXSDpqW8RarxWOmMyBkIIZ5NnMT33v482rwACsc7RRqgSK6J892UOI91G45ecX9szLOWAq7YOFGo0lJoov1Ejql9ttJjjUXMmDCUrZ8Qb7RgQxMXLOAzVD9bcjz_SESgURf00bmwnO6lWBvmDXknkZF9W1Suc2nhnr_vbrX_1BYYvdwFShg1Y_BgCFpTigYnTKQ-fkbjlgAQnNxCE-37R9uWYDmje7BFhTs3FLtHoNzw3yeyeREmjIcTZeBDvEe-09KFw4HNGAahDED8CnxIEUQUsOwfw4QDKfJmmJU9qjlXlZoAyyWC0]--></g></svg>
